<svg width="131" height="131" viewBox="0 0 131 131" fill="none" xmlns="http://www.w3.org/2000/svg">
<path d="M115.604 32.75V16.8317C115.604 15.7879 114.69 14.8745 113.646 14.8745H65.8915V5.34963C65.8915 4.3058 64.9782 3.39246 63.9344 3.39246C62.8905 3.39246 61.9772 4.3058 61.9772 5.34963V14.8745H14.3527C13.3089 14.8745 12.3955 15.7879 12.3955 16.8317V32.75C12.3955 33.2719 12.3955 34.4462 12.3955 35.3596V82.2012C12.3955 83.245 13.3089 84.1584 14.3527 84.1584H44.6236L34.5768 126.303C34.3158 127.347 34.9682 128.39 36.012 128.651C36.1425 128.651 36.273 128.651 36.534 128.651C37.4473 128.651 38.2302 127.999 38.4911 127.216L48.7989 84.1584H62.2381V115.734C62.2381 116.778 63.1515 117.691 64.1953 117.691C65.2391 117.691 66.1525 116.778 66.1525 115.734V84.1584H79.2003L89.8995 127.216C90.1604 128.13 90.9433 128.651 91.8567 128.651C91.9871 128.651 92.1176 128.651 92.3786 128.651C93.4224 128.39 94.0748 127.347 93.8138 126.303L83.3756 84.1584H113.907C114.951 84.1584 115.865 83.245 115.865 82.2012C115.865 82.2012 115.604 33.4024 115.604 32.75ZM111.689 18.7889V32.0976H16.3099V18.7889H111.689ZM16.3099 80.244V36.012H111.689V80.244H16.3099Z" fill="black"/>
</svg>
