<?xml version="1.0" encoding="UTF-8" standalone="no"?>
<!-- Created with Inkscape (http://www.inkscape.org/) -->

<svg
   width="81.384247mm"
   height="93.361mm"
   viewBox="0 0 81.384247 93.361"
   version="1.1"
   id="svg1"
   xml:space="preserve"
   inkscape:version="1.4.3 (0d15f75, 2025-12-25)"
   sodipodi:docname="cube_black_logo.svg"
   xmlns:inkscape="http://www.inkscape.org/namespaces/inkscape"
   xmlns:sodipodi="http://sodipodi.sourceforge.net/DTD/sodipodi-0.dtd"
   xmlns="http://www.w3.org/2000/svg"
   xmlns:svg="http://www.w3.org/2000/svg"
   xmlns:rdf="http://www.w3.org/1999/02/22-rdf-syntax-ns#"
   xmlns:cc="http://creativecommons.org/ns#"
   xmlns:dc="http://purl.org/dc/elements/1.1/"><defs
     id="defs1" /><sodipodi:namedview
     id="base"
     pagecolor="#ffffff"
     bordercolor="#000000"
     borderopacity="0.3"
     inkscape:pageopacity="0.0"
     inkscape:pageshadow="2"
     inkscape:zoom="1.979899"
     inkscape:cx="76.013979"
     inkscape:cy="171.97847"
     inkscape:document-units="mm"
     inkscape:showpageshadow="2"
     inkscape:pagecheckerboard="0"
     inkscape:deskcolor="#d1d1d1"
     inkscape:window-width="1920"
     inkscape:window-height="1009"
     inkscape:window-x="-8"
     inkscape:window-y="-8"
     inkscape:window-maximized="1"
     inkscape:current-layer="svg1" /><metadata
     id="metadata1"><rdf:RDF><cc:Work
         rdf:about=""><dc:format>image/svg+xml</dc:format><dc:type
           rdf:resource="http://purl.org/dc/dcmitype/StillImage" /></cc:Work></rdf:RDF></metadata><g
     inkscape:groupmode="layer"
     id="layer1"
     inkscape:label="Layer 1"
     transform="translate(-15.400442,-35.438194)"><path
       style="fill:#ffffff;stroke:#ffffff;stroke-width:0.264583"
       d="m 17.372519,104.50239 c 0.445449,0.26726 0.445449,0.26726 0,0 z"
       id="path1" /><path
       style="fill:#ffffff;fill-opacity:0;stroke:#ffffff;stroke-width:1;stroke-dasharray:none;stroke-opacity:1"
       d="M 56.260235,128.22255 96.150212,105.17056 96.283845,59.133382 56.126599,36.01457 16.236624,58.799295 15.902537,105.17056 Z"
       id="path4" /><path
       style="fill:#ffffff;fill-opacity:0;stroke:#ffffff;stroke-width:1;stroke-dasharray:none;stroke-opacity:1"
       d="M 16.437076,58.866113 30.669177,65.481032 81.249934,65.213764 96.150212,59.2002 95.949758,59.400651"
       id="path5" /><path
       style="fill:#ffffff;fill-opacity:0;stroke:#ffffff;stroke-width:1;stroke-dasharray:none;stroke-opacity:1"
       d="M 55.992966,36.148203 30.86963,65.414217"
       id="path6" /><path
       style="fill:#ffffff;fill-opacity:0;stroke:#ffffff;stroke-width:1;stroke-dasharray:none;stroke-opacity:1"
       d="M 81.316752,65.146946 56.059784,36.549107"
       id="path7" /><path
       style="fill:#ffffff;fill-opacity:0;stroke:#ffffff;stroke-width:1;stroke-dasharray:none;stroke-opacity:1"
       d="M 30.86963,65.815119 55.992966,110.38231 81.183119,65.146946"
       id="path8" /><path
       style="fill:#ffffff;fill-opacity:0;stroke:#ffffff;stroke-width:1;stroke-dasharray:none;stroke-opacity:1"
       d="m 15.902537,104.76965 40.023611,6.28084 39.889977,-6.28084"
       id="path9" /><path
       style="fill:#ffffff;fill-opacity:0;stroke:#ffffff;stroke-width:1;stroke-dasharray:none;stroke-opacity:1"
       d="M 56.193417,128.08892 55.992966,110.98367"
       id="path10" /><path
       style="fill:#ffffff;fill-opacity:0;stroke:#ffffff;stroke-width:1;stroke-dasharray:none;stroke-opacity:1"
       d="M 30.86963,65.614668 16.303441,104.63602"
       id="path11" /><path
       style="fill:#ffffff;fill-opacity:0;stroke:#ffffff;stroke-width:1;stroke-dasharray:none;stroke-opacity:1"
       d="M 81.38357,65.481032 95.882943,104.43557"
       id="path12" /><text
       xml:space="preserve"
       style="font-size:3.175px;writing-mode:lr-tb;direction:ltr;fill:#000000;fill-opacity:0;stroke:#000000;stroke-width:80.2;stroke-dasharray:none;stroke-opacity:1"
       x="50.848026"
       y="80.915848"
       id="text12"><tspan
         sodipodi:role="line"
         id="tspan12"
         style="stroke-width:80.2;stroke-dasharray:none"
         x="50.848026"
         y="80.915848" /></text><text
       xml:space="preserve"
       style="font-size:3.175px;writing-mode:lr-tb;direction:ltr;fill:#000000;fill-opacity:0;stroke:#000000;stroke-width:80.2;stroke-dasharray:none;stroke-opacity:1"
       x="51.115295"
       y="79.512688"
       id="text13"><tspan
         sodipodi:role="line"
         id="tspan13"
         style="stroke-width:80.2"
         x="51.115295"
         y="79.512688"></tspan></text></g><g
     inkscape:groupmode="layer"
     id="layer2"
     inkscape:label="Layer 2"
     transform="translate(-15.400442,-35.438194)"><text
       xml:space="preserve"
       style="font-style:normal;font-variant:normal;font-weight:normal;font-stretch:normal;font-size:22.5778px;font-family:sans-serif;-inkscape-font-specification:sans-serif;writing-mode:lr-tb;direction:ltr;fill:#ffffff;fill-opacity:0;stroke:#ffffff;stroke-width:0.3;stroke-dasharray:none;stroke-opacity:1"
       x="48.853428"
       y="89.769341"
       id="text14"><tspan
         sodipodi:role="line"
         id="tspan14"
         style="font-style:normal;font-variant:normal;font-weight:normal;font-stretch:normal;font-size:22.5778px;font-family:sans-serif;-inkscape-font-specification:sans-serif;fill:#ffffff;fill-opacity:1;stroke:#ffffff;stroke-width:0.3;stroke-dasharray:none;stroke-opacity:1"
         x="48.853428"
         y="89.769341">8</tspan></text><path
       style="fill:#ffffff;fill-opacity:0;stroke:#ffffff;stroke-width:1;stroke-dasharray:none;stroke-opacity:1"
       d="m 40.77418,95.438988 -8.362722,3.921503 1.559152,2.693079"
       id="path15" /><path
       style="fill:#ffffff;fill-opacity:0;stroke:#ffffff;stroke-width:1;stroke-dasharray:none;stroke-opacity:1"
       d="m 28.300966,89.722098 c 0,0 -0.47247,0.850446 -0.330727,1.937127 0.14174,1.086683 0.897691,2.315107 1.700891,2.787575 0.803201,0.472469 1.270395,0.820719 5.008185,-1.464659 1.6221,-0.991792 2.490944,-2.451636 1.937129,-4.488466 -0.554882,-2.040754 -1.845409,-3.027331 -3.401787,-2.456847 -1.638246,0.600492 -5.274644,3.468983 -4.913691,3.68527 z"
       id="path16"
       sodipodi:nodetypes="csssssc" /><path
       style="fill:#ffffff;fill-opacity:0;stroke:#ffffff;stroke-width:1;stroke-dasharray:none;stroke-opacity:1"
       d="m 44.364954,111.03051 1.559153,0.37797 -4.252233,3.77976"
       id="path17" /><path
       style="fill:#ffffff;fill-opacity:0;stroke:#ffffff;stroke-width:1;stroke-dasharray:none;stroke-opacity:1"
       d="m 48.239211,112.54241 4.346726,2.97656 c 0,0 -3.543528,0.0945 -4.393973,0.42523 -0.850447,0.33073 -2.504093,1.6064 -2.504093,1.6064"
       id="path18" /><path
       style="fill:#ffffff;fill-opacity:0;stroke:#ffffff;stroke-width:1;stroke-dasharray:none;stroke-opacity:1"
       d="m 61.468378,115.8497 c -0.04725,-0.33073 -0.236236,-1.27567 0.850444,-2.26785 1.086684,-0.99219 2.220611,-1.46466 2.976563,-1.41742 0.755954,0.0473 0.992187,0.8032 0.944941,1.27567 -0.04725,0.47247 -1.511903,1.98438 -1.511903,1.98438 0,0 2.126114,-1.88988 2.882066,-1.88988 0.755954,0 1.086684,-0.28348 1.417413,0.28348 0.330729,0.56696 0.377975,1.41741 -0.0945,1.98437 -0.472469,0.56697 -2.409598,2.17337 -2.409598,2.17337 0,0 -1.370163,0.51971 -1.653646,0.23623 -0.283482,-0.28348 -0.283482,-0.28348 -0.283482,-0.28348 l -0.236233,-0.0945"
       id="path19" /><path
       style="fill:#ffffff;fill-opacity:0;stroke:#ffffff;stroke-width:1;stroke-dasharray:none;stroke-opacity:1"
       d="m 90.036421,78.460311 c 0,0 1.820773,-0.0167 1.720549,-1.553504 -0.100227,-1.536801 -1.419871,-6.431174 -1.419871,-6.431174 0,0 -1.00226,-2.071338 -1.88759,-1.586913 -0.88533,0.484426 -0.818513,1.353053 -0.818513,1.353053 0,0 0.0167,1.419868 0.317381,2.388719 0.300678,0.968854 0.634765,2.021226 1.33635,2.021226 0.701582,0 1.152599,-0.23386 1.486686,-0.584652 0.334086,-0.35079 0.334086,-0.46772 0.334086,-0.46772"
       id="path20" /><path
       style="fill:#ffffff;fill-opacity:0;stroke:#ffffff;stroke-width:1;stroke-dasharray:none;stroke-opacity:1"
       d="m 86.414805,66.925409 2.527718,-0.590587"
       id="path21" /><path
       style="fill:#ffffff;fill-opacity:0;stroke:#ffffff;stroke-width:1;stroke-dasharray:none;stroke-opacity:1"
       d="m 77.697731,51.688243 1.039434,1.370163 -2.834822,1.913506"
       id="path22" /><path
       style="fill:#ffffff;fill-opacity:0;stroke:#ffffff;stroke-width:1;stroke-dasharray:none;stroke-opacity:1"
       d="m 80.627044,60.61793 3.047434,-2.338726 -5.055431,-2.173364 3.732514,5.079055 v 0 l 0.04725,0.165365"
       id="path23" /><path
       style="fill:#ffffff;fill-opacity:0;stroke:#ffffff;stroke-width:1;stroke-dasharray:none;stroke-opacity:1"
       d="m 57.897262,52.351418 c 0,0 0.701582,-1.837478 2.071338,-1.937705 1.369756,-0.100224 2.636361,0.0055 3.474503,1.269532 0.872123,1.315324 1.921589,7.53483 0.367495,8.118312 -0.168428,0.06324 -0.04329,0.537526 -1.503391,0.73499 -1.479974,0.200152 -2.335766,-0.558655 -3.107007,-0.968851 -1.834037,-0.97546 -1.512632,-7.202444 -1.302938,-7.216278 z"
       id="path24"
       sodipodi:nodetypes="csssssc" /><path
       style="fill:#ffffff;fill-opacity:0;stroke:#ffffff;stroke-width:1;stroke-dasharray:none;stroke-opacity:1"
       d="m 47.17307,52.451645 c 0,0 0.7684,-1.536801 1.971114,-1.770661 1.202714,-0.233862 2.706103,-0.100226 3.274052,0.634765 0.567947,0.734991 0.734991,2.305198 0.434314,2.839738 -0.300681,0.534538 -6.815373,6.180609 -6.815373,6.180609 l 7.683997,0.03341"
       id="path25" /><path
       style="fill:#ffffff;fill-opacity:0;stroke:#ffffff;stroke-width:1;stroke-dasharray:none;stroke-opacity:1"
       d="m 25.52424,67.218287 -2.372018,10.423509 1.169305,-0.701583"
       id="path26" /><path
       style="fill:#ffffff;fill-opacity:0;stroke:#ffffff;stroke-width:1;stroke-dasharray:none;stroke-opacity:1"
       d="m 21.414971,65.648077 2.27179,0.868627 c 0,0 -0.50113,1.302938 -0.868625,1.870885 -0.367496,0.567949 -2.338609,3.608139 -2.438835,3.741774 -0.100226,0.133633 -0.467721,0.935443 -0.467721,2.071339 0,1.135895 0.167043,2.037929 0.567947,2.138156 0.400905,0.100226 1.503391,-1.135896 1.737252,-1.536801 0.233861,-0.400902 0.233861,-0.400902 0.233861,-0.400902"
       id="path27" /><path
       style="fill:#ffffff;fill-opacity:0;stroke:#ffffff;stroke-width:1;stroke-dasharray:none;stroke-opacity:1"
       d="m 28.163525,58.96634 c 0,0 0.233862,-1.469983 1.035672,-2.405428 0.801806,-0.935442 2.23838,-2.037929 2.839738,-1.870887 0.601356,0.167045 -1.737251,6.648331 -1.737251,6.648331 l 5.111527,-5.879931"
       id="path28" /><path
       style="fill:#ffffff;fill-opacity:0;stroke:#ffffff;stroke-width:1;stroke-dasharray:none;stroke-opacity:1"
       d="m 85.359205,91.272541 -1.102487,2.873148 -7.516956,-6.180606"
       id="path29" /><path
       style="fill:#ffffff;fill-opacity:0;stroke:#ffffff;stroke-width:1;stroke-dasharray:none;stroke-opacity:1"
       d="m 79.011554,102.16378 c 0,0 1.403165,-1.40317 1.536798,-2.572474 0.133636,-1.169302 -0.267269,-3.04019 -1.302938,-3.80859 -1.035669,-0.7684 -4.376539,-1.804068 -4.376539,-1.804068 0.01796,0.227353 -0.53579,-0.468046 -1.804069,0.133635 -1.511021,0.71684 -2.338607,2.405425 -2.305198,3.474503 0.03341,1.069078 0.634764,2.639284 1.737251,2.839744 1.102487,0.20045 2.204974,0.16704 3.140416,-0.701588 0.935445,-0.868627 1.603619,-1.971114 1.637028,-2.906557 0.03341,-0.935442 -0.501132,-2.372016 -0.501132,-2.372016"
       id="path30"
       sodipodi:nodetypes="csscsssssc" /></g></svg>
